<svg version="1.1" id="Layer_1" xmlns="http://www.w3.org/2000/svg" xmlns:xlink="http://www.w3.org/1999/xlink" x="0px" y="0px"
	 width="100%" viewBox="0 0 256 256" enable-background="new 0 0 256 256" xml:space="preserve" fill="none">
<path fill="#010101" opacity="1.000000" stroke="none"
	d="
M149.000000,257.000000
	C99.333336,257.000000 50.166672,257.000000 1.000007,257.000000
	C1.000004,171.666672 1.000004,86.333351 1.000002,1.000018
	C86.333321,1.000012 171.666641,1.000012 257.000000,1.000006
	C257.000000,86.333313 257.000000,171.666626 257.000000,256.999969
	C221.166672,257.000000 185.333328,257.000000 149.000000,257.000000
M158.703201,132.593231
	C157.784546,134.385529 156.865875,136.177826 155.430923,138.399689
	C149.949524,147.926254 144.468124,157.452805 138.325150,167.286224
	C132.374115,171.568787 126.221954,170.445694 119.720825,167.351807
	C118.747398,165.807449 117.740318,164.283142 116.806190,162.715378
	C111.890610,154.465393 106.993454,146.204422 101.994843,137.253052
	C100.901123,135.370132 99.807404,133.487213 98.713684,131.604294
	C98.406670,131.700974 98.099663,131.797668 97.792648,131.894363
	C97.714661,133.644836 97.636673,135.395294 97.354607,137.891800
	C97.533493,139.591797 97.712379,141.291809 97.849892,143.929413
	C97.724632,156.622253 97.599365,169.315079 97.097557,182.491882
	C95.885849,184.438324 94.674149,186.384750 93.162125,188.813614
	C94.653404,189.638306 96.171417,190.477783 98.252403,191.744751
	C119.124977,201.351715 140.026016,201.812897 161.641785,191.914322
	C163.237656,190.923874 164.833542,189.933426 165.695984,189.398163
	C163.672592,186.275024 161.957916,183.628387 160.205399,180.048172
	C160.173096,167.696030 160.140808,155.343887 160.573502,142.413498
	C160.529709,140.657501 160.485931,138.901489 160.726181,136.394257
	C160.498779,134.920441 160.271378,133.446640 159.875198,131.603119
	C159.603683,131.742508 159.332184,131.881882 158.703201,132.593231
M40.926308,157.005981
	C33.136600,157.005981 25.346893,157.005981 17.484737,157.005981
	C28.612247,203.974655 75.404152,247.156342 137.360046,243.866684
	C186.052383,241.281265 238.476288,197.864746 241.669800,157.000870
	C234.330505,157.000870 227.007294,156.865250 219.698517,157.129395
	C218.424805,157.175430 216.582825,158.646973 216.066360,159.898743
	C209.401642,176.052490 199.805679,190.104156 185.742844,200.576279
	C164.573578,216.340332 140.857346,222.726181 114.597633,217.999496
	C80.768211,211.910278 57.556156,192.578537 44.143539,161.132187
	C43.532669,159.699966 42.587994,158.410126 40.926308,157.005981
M208.615219,80.924133
	C210.498276,84.776299 212.275574,88.686317 214.331146,92.444115
	C214.920105,93.520813 216.295456,94.856277 217.341721,94.883965
	C225.111938,95.089638 232.890091,94.995514 240.775940,94.995514
	C230.575790,55.476723 188.459991,6.669819 119.267365,12.124394
	C69.045021,16.083508 29.138689,53.704014 18.913568,95.000771
	C26.118866,95.000771 33.280834,94.844337 40.430004,95.078575
	C43.247498,95.170891 44.480141,94.130417 45.612701,91.688950
	C60.436729,59.732811 85.234764,41.304199 120.271523,36.631992
	C154.090195,32.122211 191.254333,50.485149 208.615219,80.924133
M165.296158,81.681038
	C153.061905,103.106094 140.827637,124.531143 128.319977,146.434982
	C127.122742,144.497314 126.223778,143.133224 125.414024,141.718109
	C114.601791,122.822739 103.421715,104.122330 93.210785,84.907043
	C89.757271,78.408089 85.791084,75.895424 78.941010,77.142723
	C78.642143,77.197144 78.377129,77.437447 78.042618,77.620583
	C78.042618,111.644920 78.042618,145.688889 78.042618,179.669571
	C81.594276,179.669571 84.818863,179.669571 88.429573,179.669571
	C88.429573,152.497131 88.429573,125.663452 88.429573,97.751465
	C89.946320,100.262695 90.907204,101.792137 91.808807,103.355759
	C102.185226,121.351448 112.546616,139.355789 122.926155,157.349670
	C126.010582,162.696808 130.574234,162.740677 133.614975,157.450912
	C144.050095,139.297852 154.467422,121.134583 164.894684,102.977005
	C165.665070,101.635498 166.460617,100.308441 167.244461,98.974655
	C167.573761,99.064453 167.903061,99.154243 168.232361,99.244041
	C168.232361,126.081520 168.232361,152.919006 168.232361,179.689316
	C172.052460,179.689316 175.298935,179.689316 178.487198,179.689316
	C178.487198,145.328705 178.487198,111.289452 178.487198,76.661194
	C173.931519,78.347107 168.130936,74.167030 165.296158,81.681038
M153.542923,87.048767
	C155.101624,84.297729 156.897385,81.651749 158.172348,78.774963
	C161.358093,71.586716 166.292053,67.570892 174.545410,68.867714
	C174.703247,68.892517 174.928986,68.485207 175.120636,68.277252
	C149.586502,46.572193 107.093880,48.432762 83.855438,69.439049
	C93.629288,67.034981 96.760262,73.242790 100.129677,79.400940
	C104.682106,87.721252 109.477005,95.909279 114.194336,104.138893
	C118.961418,112.455315 123.760826,120.753220 129.030914,129.900787
	C137.379074,115.289101 145.268036,101.481155 153.542923,87.048767
M188.151016,147.499908
	C188.151016,154.566666 188.151016,161.633438 188.151016,169.226578
	C209.256561,145.117355 206.624161,100.998856 188.151169,82.878014
	C188.151169,104.247208 188.151169,125.373589 188.151016,147.499908
M69.855148,111.500015
	C69.855148,102.976875 69.855148,94.453735 69.855148,85.190117
	C52.164837,106.382629 53.250908,147.207932 69.855042,166.028641
	C69.855042,148.029724 69.855042,130.264862 69.855148,111.500015
z"/>
<path fill="#5C6AEB" opacity="1.000000" stroke="none"
	d="
M41.362549,157.029968
	C42.587994,158.410126 43.532669,159.699966 44.143539,161.132187
	C57.556156,192.578537 80.768211,211.910278 114.597633,217.999496
	C140.857346,222.726181 164.573578,216.340332 185.742844,200.576279
	C199.805679,190.104156 209.401642,176.052490 216.066360,159.898743
	C216.582825,158.646973 218.424805,157.175430 219.698517,157.129395
	C227.007294,156.865250 234.330505,157.000870 241.669800,157.000870
	C238.476288,197.864746 186.052383,241.281265 137.360046,243.866684
	C75.404152,247.156342 28.612247,203.974655 17.484737,157.005981
	C25.346893,157.005981 33.136600,157.005981 41.362549,157.029968
z"/>
<path fill="#5C6AEB" opacity="1.000000" stroke="none"
	d="
M208.406006,80.620453
	C191.254333,50.485149 154.090195,32.122211 120.271523,36.631992
	C85.234764,41.304199 60.436729,59.732811 45.612701,91.688950
	C44.480141,94.130417 43.247498,95.170891 40.430004,95.078575
	C33.280834,94.844337 26.118866,95.000771 18.913568,95.000771
	C29.138689,53.704014 69.045021,16.083508 119.267365,12.124394
	C188.459991,6.669819 230.575790,55.476723 240.775940,94.995514
	C232.890091,94.995514 225.111938,95.089638 217.341721,94.883965
	C216.295456,94.856277 214.920105,93.520813 214.331146,92.444115
	C212.275574,88.686317 210.498276,84.776299 208.406006,80.620453
z"/>
<path fill="#F9F9F9" opacity="1.000000" stroke="none"
	d="
M165.516632,81.370438
	C168.130936,74.167030 173.931519,78.347107 178.487198,76.661194
	C178.487198,111.289452 178.487198,145.328705 178.487198,179.689316
	C175.298935,179.689316 172.052460,179.689316 168.232361,179.689316
	C168.232361,152.919006 168.232361,126.081520 168.232361,99.244041
	C167.903061,99.154243 167.573761,99.064453 167.244461,98.974655
	C166.460617,100.308441 165.665070,101.635498 164.894684,102.977005
	C154.467422,121.134583 144.050095,139.297852 133.614975,157.450912
	C130.574234,162.740677 126.010582,162.696808 122.926155,157.349670
	C112.546616,139.355789 102.185226,121.351448 91.808807,103.355759
	C90.907204,101.792137 89.946320,100.262695 88.429573,97.751465
	C88.429573,125.663452 88.429573,152.497131 88.429573,179.669571
	C84.818863,179.669571 81.594276,179.669571 78.042618,179.669571
	C78.042618,145.688889 78.042618,111.644920 78.042618,77.620583
	C78.377129,77.437447 78.642143,77.197144 78.941010,77.142723
	C85.791084,75.895424 89.757271,78.408089 93.210785,84.907043
	C103.421715,104.122330 114.601791,122.822739 125.414024,141.718109
	C126.223778,143.133224 127.122742,144.497314 128.319977,146.434982
	C140.827637,124.531143 153.061905,103.106094 165.516632,81.370438
z"/>
<path fill="#CF6144" opacity="1.000000" stroke="none"
	d="
M153.349945,87.360985
	C145.268036,101.481155 137.379074,115.289101 129.030914,129.900787
	C123.760826,120.753220 118.961418,112.455315 114.194336,104.138893
	C109.477005,95.909279 104.682106,87.721252 100.129677,79.400940
	C96.760262,73.242790 93.629288,67.034981 83.855438,69.439049
	C107.093880,48.432762 149.586502,46.572193 175.121826,68.278381
	C174.928986,68.485207 174.703247,68.892517 174.545410,68.867714
	C166.292053,67.570892 161.358093,71.586716 158.172348,78.774963
	C156.897385,81.651749 155.101624,84.297729 153.349945,87.360985
z"/>
<path fill="#C95F43" opacity="1.000000" stroke="none"
	d="
M160.959198,191.939850
	C140.026016,201.812897 119.124977,201.351715 98.029709,191.083466
	C97.696037,187.617416 97.585068,184.812668 97.474098,182.007919
	C97.599365,169.315079 97.724632,156.622253 98.251740,143.458527
	C100.207535,144.272507 102.243362,145.264526 103.232658,146.892517
	C107.699387,154.242981 112.000229,161.702789 116.099968,169.264618
	C118.706551,174.072372 122.355202,176.725601 127.887123,176.969376
	C133.860840,177.232620 138.529404,175.410797 141.548157,169.913879
	C145.610184,162.517227 149.691605,155.117950 154.154907,147.963211
	C155.455017,145.879089 158.087021,144.625839 160.108521,142.991745
	C160.140808,155.343887 160.173096,167.696030 159.921021,180.728424
	C160.077484,184.919052 160.518341,188.429459 160.959198,191.939850
z"/>
<path fill="#C45C41" opacity="1.000000" stroke="none"
	d="
M188.151093,146.999939
	C188.151169,125.373589 188.151169,104.247208 188.151169,82.878014
	C206.624161,100.998856 209.256561,145.117355 188.151016,169.226578
	C188.151016,161.633438 188.151016,154.566666 188.151093,146.999939
z"/>
<path fill="#C25B40" opacity="1.000000" stroke="none"
	d="
M69.855095,112.000015
	C69.855042,130.264862 69.855042,148.029724 69.855042,166.028641
	C53.250908,147.207932 52.164837,106.382629 69.855148,85.190117
	C69.855148,94.453735 69.855148,102.976875 69.855095,112.000015
z"/>
<path fill="#7C3A29" opacity="1.000000" stroke="none"
	d="
M160.341003,142.702621
	C158.087021,144.625839 155.455017,145.879089 154.154907,147.963211
	C149.691605,155.117950 145.610184,162.517227 141.548157,169.913879
	C138.529404,175.410797 133.860840,177.232620 127.887123,176.969376
	C122.355202,176.725601 118.706551,174.072372 116.099968,169.264618
	C112.000229,161.702789 107.699387,154.242981 103.232658,146.892517
	C102.243362,145.264526 100.207535,144.272507 98.272430,142.989716
	C97.712379,141.291809 97.533493,139.591797 97.771408,137.486206
	C99.488770,137.369492 100.789337,137.658371 102.089905,137.947266
	C106.993454,146.204422 111.890610,154.465393 116.806190,162.715378
	C117.740318,164.283142 118.747398,165.807449 119.858810,168.041901
	C121.814117,173.463913 124.478378,174.789764 131.556244,173.940018
	C135.565567,173.458679 138.774719,171.712860 138.986725,166.979355
	C144.468124,157.452805 149.949524,147.926254 156.032074,138.167816
	C157.902863,137.672455 159.172501,137.408981 160.442154,137.145508
	C160.485931,138.901489 160.529709,140.657501 160.341003,142.702621
z"/>
<path fill="#5E2C1F" opacity="1.000000" stroke="none"
	d="
M138.655945,167.132782
	C138.774719,171.712860 135.565567,173.458679 131.556244,173.940018
	C124.478378,174.789764 121.814117,173.463913 120.008072,168.349670
	C126.221954,170.445694 132.374115,171.568787 138.655945,167.132782
z"/>
<path fill="#7C3A29" opacity="1.000000" stroke="none"
	d="
M161.300491,191.927094
	C160.518341,188.429459 160.077484,184.919052 159.939941,181.195221
	C161.957916,183.628387 163.672592,186.275024 165.695984,189.398163
	C164.833542,189.933426 163.237656,190.923874 161.300491,191.927094
z"/>
<path fill="#7C3A29" opacity="1.000000" stroke="none"
	d="
M97.285828,182.249908
	C97.585068,184.812668 97.696037,187.617416 97.748215,190.869720
	C96.171417,190.477783 94.653404,189.638306 93.162125,188.813614
	C94.674149,186.384750 95.885849,184.438324 97.285828,182.249908
z"/>
<path fill="#5E2C1F" opacity="1.000000" stroke="none"
	d="
M160.584167,136.769882
	C159.172501,137.408981 157.902863,137.672455 156.290207,137.953033
	C156.865875,136.177826 157.784546,134.385529 159.127670,132.297836
	C159.552139,132.002441 160.043991,131.972824 160.043976,131.972824
	C160.271378,133.446640 160.498779,134.920441 160.584167,136.769882
z"/>
<path fill="#5E2C1F" opacity="1.000000" stroke="none"
	d="
M102.042374,137.600159
	C100.789337,137.658371 99.488770,137.369492 97.873444,137.113190
	C97.636673,135.395294 97.714661,133.644836 97.792648,131.894363
	C98.099663,131.797668 98.406670,131.700974 98.713684,131.604294
	C99.807404,133.487213 100.901123,135.370132 102.042374,137.600159
z"/>
<path fill="#4A2218" opacity="1.000000" stroke="none"
	d="
M159.959595,131.787964
	C160.043991,131.972824 159.552139,132.002441 159.306412,132.011841
	C159.332184,131.881882 159.603683,131.742508 159.959595,131.787964
z"/>
</svg>