<?xml version="1.0" encoding="UTF-8"?>
<svg version="1.1" xmlns="http://www.w3.org/2000/svg" width="128" height="128" viewBox="0 0 128 128">
  <!-- Background circle for better contrast -->
  <circle cx="64" cy="64" r="60" fill="#2D3748" stroke="#4A5568" stroke-width="2"/>

  <!-- Main logo paths with improved contrast -->
  <g transform="translate(12,22)">
    <!-- Primary shape with better contrast -->
    <path d="M0 0 C34.32 0 68.64 0 104 0 C103.67 3.63 103.34 7.26 103 11 C99.37 11 95.74 11 92 11 C92 22.55 92 34.1 92 46 C89.6203388 47.1898306 88.08514265 47.13349966 85.4375 47.125 C84.22900391 47.12886719 84.22900391 47.12886719 82.99609375 47.1328125 C81 47 81 47 80 46 C79.91148471 43.40640678 79.88474055 40.83960309 79.90234375 38.24609375 C79.9037587 37.47064713 79.90517365 36.6952005 79.90663147 35.89625549 C79.91224655 33.40996506 79.92480154 30.9237634 79.9375 28.4375 C79.94251306 26.75586067 79.9470763 25.07421994 79.95117188 23.39257812 C79.96222087 19.26168434 79.97949555 15.13085724 80 11 C76.04 11 72.08 11 68 11 C68 8.03 68 5.06 68 2 C63.38 2 58.76 2 54 2 C54 13.22 54 24.44 54 36 C59.94 36 65.88 36 72 36 C72.09765625 43.71484375 72.09765625 43.71484375 72 46 C70.19720809 47.80279191 67.45952299 47.13036605 65.03125 47.1328125 C63.82082031 47.13410156 62.61039063 47.13539062 61.36328125 47.13671875 C60.08839844 47.13285156 58.81351563 47.12898438 57.5 47.125 C56.22511719 47.12886719 54.95023438 47.13273437 53.63671875 47.13671875 C52.42628906 47.13542969 51.21585938 47.13414063 49.96875 47.1328125 C48.84919922 47.13168457 47.72964844 47.13055664 46.57617188 47.12939453 C44 47 44 47 43 46 C42.9072167 44.61839885 42.88252957 43.23211962 42.88647461 41.84741211 C42.88655014 40.96657455 42.88662567 40.085737 42.88670349 39.1782074 C42.89444542 37.74227989 42.89444542 37.74227989 42.90234375 36.27734375 C42.9037587 35.30213272 42.90517365 34.32692169 42.90663147 33.32215881 C42.91224867 30.19390857 42.92480407 27.06572877 42.9375 23.9375 C42.94251278 21.82226666 42.94707607 19.70703219 42.95117188 17.59179688 C42.96222369 12.39450393 42.97949984 7.19726392 43 2 C36.565 2.495 36.565 2.495 30 3 C31.2375 4.2065625 31.2375 4.2065625 32.5 5.4375 C35.33274993 8.83358088 35.609376 11.53904403 35.375 15.875 C34.87291805 18.72013103 33.75793815 20.72932989 32 23 C32.9590625 23.9590625 32.9590625 23.9590625 33.9375 24.9375 C36.61716662 28.91639892 37.20815685 32.23841214 37 37 C35.25796652 41.61126509 32.2782657 43.69631847 28 46 C22.34121008 47.11167609 16.80060594 47.11922652 11.0625 47.0625 C10.18787109 47.05798828 9.31324219 47.05347656 8.41210938 47.04882812 C6.27470953 47.03714834 4.13734537 47.01921689 2 47 C2.33 49.31 2.66 51.62 3 54 C4.22331024 53.99777939 5.44662048 53.99555878 6.70700073 53.99327087 C18.21440232 53.97303222 29.7218003 53.95802435 41.22921562 53.94818783 C47.14581924 53.94296085 53.06240853 53.93586653 58.97900391 53.92456055 C64.68480699 53.91372513 70.39059627 53.90772177 76.09640884 53.90512276 C78.27738792 53.90326969 80.45836622 53.89965134 82.63933945 53.89426994 C85.68519497 53.88705086 88.73099282 53.88600943 91.77685547 53.88647461 C92.68603729 53.88287933 93.59521912 53.87928406 94.5319519 53.87557983 C100.77189568 53.88594784 100.77189568 53.88594784 103 55 C102.67 56.65 102.34 58.3 102 60 C69 60 36 60 2 60 C2 61.98 2 63.96 2 66 C35.33 66 68.66 66 103 66 C103.33 66.99 103.66 67.98 104 69 C102.43262567 70.86013085 101.52939218 71.89712731 99.10035419 72.36914349 C98.38043387 72.36637811 97.66051355 72.36361273 96.91877747 72.36076355 C96.09006638 72.36488754 95.26135529 72.36901154 94.40753174 72.3732605 C93.04915192 72.35708176 93.04915192 72.35708176 91.66333008 72.34057617 C90.70704208 72.34101425 89.75075409 72.34145233 88.76548767 72.34190369 C85.59996223 72.3398112 82.43496433 72.31645816 79.26953125 72.29296875 C77.07663767 72.28737444 74.88374034 72.28310356 72.69084167 72.28010559 C66.91543246 72.26864387 61.1402491 72.23916511 55.3649292 72.20599365 C49.47313492 72.17532146 43.5813042 72.16160635 37.68945312 72.14648438 C26.12620278 72.11429681 14.56312016 72.06308431 3 72 C2.67 73.65 2.34 75.3 2 77 C35 77 68 77 102 77 C102.33 78.65 102.66 80.3 103 82 C98.96814675 83.34395108 95.08256503 83.13902365 90.87866211 83.12939453 C89.94509384 83.13114685 89.01152557 83.13289917 88.04966736 83.13470459 C84.958874 83.13911167 81.8681377 83.13618935 78.77734375 83.1328125 C76.63407887 83.13348581 74.49081406 83.13445606 72.34754944 83.13571167 C67.85433221 83.13718705 63.36113485 83.13503899 58.86791992 83.13037109 C53.09838501 83.12467048 47.32889658 83.12795594 41.55936337 83.13394356 C37.13370918 83.13755055 32.70806609 83.13641 28.28241158 83.13381577 C26.1544653 83.13314706 24.02651803 83.13397297 21.89857292 83.13629532 C18.92966911 83.13882445 15.96084147 83.13497767 12.99194336 83.12939453 C12.10617615 83.13141876 11.22040894 83.13344299 10.30780029 83.13552856 C4.22852908 83.11426454 4.22852908 83.11426454 2 82 C2 82.66 2 83.32 2 84 C1.34 84 0.68 84 0 84 C0 56.28 0 28.56 0 0 Z" fill="#E2E8F0"/>

    <!-- Secondary shape with better contrast -->
    <path d="M0 0 C4.186875 -0.061875 8.37375 -0.12375 12.6875 -0.1875 C13.99936279 -0.21481201 15.31122559 -0.24212402 16.6628418 -0.27026367 C17.70609619 -0.27775635 18.74935059 -0.28524902 19.82421875 -0.29296875 C20.88729248 -0.3086792 21.95036621 -0.32438965 23.0456543 -0.34057617 C27.19157866 0.13736486 29.75178831 1.88091366 32.8125 4.625 C34.6682441 8.33648821 34.56445753 11.93301113 34 16 C32.5 19.0625 32.5 19.0625 31 21 C31.9590625 21.9590625 31.9590625 21.9590625 32.9375 22.9375 C35.61716662 26.91639892 36.20815685 30.23841214 36 35 C34.61640477 38.66245796 32.4289782 41.02480452 29.13793945 43.16870117 C24.13914726 45.1123905 18.39810221 44.39171972 13.125 44.25 C8.79375 44.1675 4.4625 44.085 0 44 C0 29.48 0 14.96 0 0 Z" fill="#CBD5E0"/>

    <!-- Additional shapes with improved contrast -->
    <path d="M0 0 C11.22 0 22.44 0 34 0 C34 2.97 34 5.94 34 9 C30.37 9 26.74 9 23 9 C23 20.55 23 32.1 23 44 C20.6203388 45.1898306 19.08514265 45.13349966 16.4375 45.125 C15.22900391 45.12886719 15.22900391 45.12886719 13.99609375 45.1328125 C12 45 12 45 11 44 C10.91148471 41.40640678 10.88474055 38.83960309 10.90234375 36.24609375 C10.9037587 35.47064713 10.90517365 34.6952005 10.90663147 33.89625549 C10.91224655 31.40996506 10.92480154 28.9237634 10.9375 26.4375 C10.94251306 24.75586067 10.9470763 23.07421994 10.95117188 21.39257812 C10.96222087 17.26168434 10.97949555 13.13085724 11 9 C7.37 9 3.74 9 0 9 C0 6.03 0 3.06 0 0 Z" fill="#A0AEC0"/>

    <path d="M0 0 C3.63 0 7.26 0 11 0 C11 11.22 11 22.44 11 34 C16.94 34 22.88 34 29 34 C29.09765625 41.71484375 29.09765625 41.71484375 29 44 C27.19720809 45.80279191 24.45952299 45.13036605 22.03125 45.1328125 C20.82082031 45.13410156 19.61039063 45.13539062 18.36328125 45.13671875 C17.08839844 45.13285156 15.81351563 45.12898438 14.5 45.125 C13.22511719 45.12886719 11.95023438 45.13273437 10.63671875 45.13671875 C8.82107422 45.13478516 8.82107422 45.13478516 6.96875 45.1328125 C5.84919922 45.13168457 4.72964844 45.13055664 3.57617188 45.12939453 C1 45 1 45 0 44 C-0.0927833 42.61839885 -0.11747043 41.23211962 -0.11352539 39.84741211 C-0.11341209 38.52615578 -0.11341209 38.52615578 -0.11329651 37.1782074 C-0.10555458 35.74227989 -0.10555458 35.74227989 -0.09765625 34.27734375 C-0.0962413 33.30213272 -0.09482635 32.32692169 -0.09336853 31.32215881 C-0.08775133 28.19390857 -0.07519593 25.06572877 -0.0625 21.9375 C-0.05748722 19.82226666 -0.05292393 17.70703219 -0.04882812 15.59179688 C-0.03777631 10.39450393 -0.02050016 5.19726392 0 0 Z" fill="#718096"/>

    <!-- Accent colors with better contrast -->
    <path d="M0 0 C33.33 0 66.66 0 101 0 C101.495 1.485 101.495 1.485 102 3 C100.43495449 4.85505623 99.5276428 5.89560852 97.10594082 6.37473011 C96.38861814 6.37456237 95.67129545 6.37439463 94.93223572 6.3742218 C94.10641495 6.38123611 93.28059418 6.38825043 92.42974854 6.39547729 C91.52730408 6.38783356 90.62485962 6.38018982 89.69506836 6.37231445 C88.26545525 6.37779045 88.26545525 6.37779045 86.80696106 6.38337708 C83.65107504 6.39149487 80.49570044 6.37786308 77.33984375 6.36328125 C75.15173849 6.36276283 72.96363275 6.36327981 70.77552795 6.36479187 C66.18809056 6.36470209 61.60082872 6.35426079 57.01342773 6.33618164 C51.12276569 6.31348101 45.23235998 6.31295224 39.34166622 6.31969929 C34.82334602 6.32303476 30.30508465 6.31641737 25.78677559 6.30657005 C23.61417511 6.30271148 21.4415681 6.30157254 19.26896477 6.3031559 C16.23769448 6.30352525 13.20675751 6.29094327 10.17553711 6.2746582 C9.27106842 6.27713562 8.36659973 6.27961304 7.4347229 6.28216553 C1.2287413 6.2287413 1.2287413 6.2287413 -1 4 C-0.67 2.68 -0.34 1.36 0 0 Z" fill="#F56565"/>

    <path d="M0 0 C32.67 0 65.34 0 99 0 C99.495 1.98 99.495 1.98 100 4 C66.34 4 32.68 4 -2 4 C-1.34 2.68 -0.68 1.36 0 0 Z" fill="#ED8936"/>

    <path d="M0 0 C34.32 0 68.64 0 104 0 C104 0.66 104 1.32 104 2 C92.45 2 80.9 2 69 2 C69 4.97 69 7.94 69 11 C68.67 11 68.34 11 68 11 C68 8.03 68 5.06 68 2 C66.34121826 2.05329468 66.34121826 2.05329468 64.64892578 2.10766602 C43.35629773 2.77732503 22.28309248 3.14699301 1 2 C1 16.52 1 31.04 1 46 C7.6 46 14.2 46 21 46 C21 46.33 21 46.66 21 47 C14.73 47 8.46 47 2 47 C2 49.97 2 52.94 2 56 C1.34 56 0.68 56 0 56 C0 37.52 0 19.04 0 0 Z" fill="#F7FAFC"/>

    <path d="M0 0 C0.99 0.495 0.99 0.495 2 1 C1.98839844 1.7734375 1.97679687 2.546875 1.96484375 3.34375 C1.89675826 10.4783266 1.89675826 10.4783266 2.625 17.5625 C3 21 3 21 1 24 C34.66 24 68.32 24 103 24 C99.00402357 26.66398429 95.51678092 26.27241259 90.87866211 26.24291992 C89.47830971 26.24576744 89.47830971 26.24576744 88.04966736 26.24867249 C84.95880784 26.25238213 81.86818244 26.24167391 78.77734375 26.23046875 C76.63407926 26.22927702 74.49081424 26.22882377 72.34754944 26.2290802 C67.85430638 26.22751504 63.36114295 26.21922237 58.86791992 26.20581055 C53.09837927 26.18881047 47.32892612 26.18499648 41.55936337 26.18575573 C37.13370422 26.18548428 32.70806433 26.18000719 28.28241158 26.17275429 C26.15446684 26.16956458 24.02651992 26.16759951 21.89857292 26.16686058 C18.92965829 26.1647008 15.96083787 26.15596467 12.99194336 26.14526367 C11.66329254 26.14594345 11.66329254 26.14594345 10.30780029 26.14663696 C4.22895475 26.11447738 4.22895475 26.11447738 2 25 C2 25.66 2 26.32 2 27 C1.34 27 0.68 27 0 27 C0 18.09 0 9.18 0 0 Z" fill="#9F7AEA"/>

    <path d="M0 0 C16.5 0 33 0 50 0 C50 0.66 50 1.32 50 2 C38.45 2 26.9 2 15 2 C15 4.97 15 7.94 15 11 C14.67 11 14.34 11 14 11 C14 8.03 14 5.06 14 2 C9.38 2 4.76 2 0 2 C0 1.34 0 0.68 0 0 Z" fill="#EDF2F7"/>

    <path d="M0 0 C0.99 0.495 0.99 0.495 2 1 C1.98839844 1.7734375 1.97679687 2.546875 1.96484375 3.34375 C1.89702724 10.4741117 1.89702724 10.4741117 2.5625 17.5625 C3 21 3 21 2 24 C2 24.99 2 25.98 2 27 C1.34 27 0.68 27 0 27 C0 18.09 0 9.18 0 0 Z" fill="#E6FFFA"/>
  </g>

  <!-- BLT text with dark blue color matching header -->
  <g>
    <text x="30" y="62" font-family="Inter, Arial, sans-serif" font-size="44" font-weight="900" fill="hsl(221 83% 13%)" text-anchor="middle" stroke="#1A202C" stroke-width="0.5">B</text>
    <text x="68" y="64" font-family="Inter, Arial, sans-serif" font-size="44" font-weight="900" fill="hsl(221 83% 13%)" text-anchor="middle" stroke="#1A202C" stroke-width="0.5">L</text>
    <text x="98" y="60" font-family="Inter, Arial, sans-serif" font-size="44" font-weight="900" fill="hsl(221 83% 13%)" text-anchor="middle" stroke="#1A202C" stroke-width="0.5">T</text>
  </g>
</svg>
